<svg xmlns="http://www.w3.org/2000/svg" viewBox="0 0 192 192" fill="none">
  <defs>
    <linearGradient id="bg" x1="24" y1="20" x2="164" y2="176" gradientUnits="userSpaceOnUse">
      <stop offset="0" stop-color="#0B63F6"/>
      <stop offset="0.52" stop-color="#22C7FF"/>
      <stop offset="1" stop-color="#39D98A"/>
    </linearGradient>
    <radialGradient id="glow" cx="0" cy="0" r="1" gradientUnits="userSpaceOnUse" gradientTransform="translate(64 48) rotate(43.6) scale(66.1224)">
      <stop stop-color="#fff" stop-opacity=".35"/>
      <stop offset="1" stop-color="#fff" stop-opacity="0"/>
    </radialGradient>
  </defs>
  <rect x="10" y="10" width="172" height="172" rx="48" fill="url(#bg)"/>
  <rect x="11.5" y="11.5" width="169" height="169" rx="46.5" stroke="#FFFFFF" stroke-opacity=".24"/>
  <circle cx="56" cy="50" r="23" fill="url(#glow)"/>
  <path d="M131.5 64.5C122.7 55.1 110.3 49 96.4 49C69.1 49 47 70.8 47 97.7C47 124.6 69.1 146.5 96.4 146.5C113.6 146.5 129 137.8 137.8 124.1" stroke="#FFFFFF" stroke-opacity=".9" stroke-width="14" stroke-linecap="round"/>
  <path d="M101.9 46L74.4 101.7H95.1L84.4 146L128.7 90.3H107.7L121.5 46H101.9Z" fill="white"/>
  <circle cx="138" cy="72" r="8.5" fill="#D7FFF1"/>
</svg>
